<mxfile host="app.diagrams.net" modified="2023-03-05T13:35:01.611Z" agent="5.0 (Windows NT 10.0; Win64; x64) AppleWebKit/537.36 (KHTML, like Gecko) Chrome/110.0.0.0 Safari/537.36" etag="_pXvoZGdI4b4TVrUm0HF" version="21.0.2" type="github">
  <diagram name="第 1 页" id="KcfM8XjY7etDyMbc07uQ">
    <mxGraphModel dx="877" dy="563" grid="1" gridSize="10" guides="1" tooltips="1" connect="1" arrows="1" fold="1" page="1" pageScale="1" pageWidth="827" pageHeight="1169" math="0" shadow="0">
      <root>
        <mxCell id="0" />
        <mxCell id="1" parent="0" />
        <mxCell id="w50J-O3KDVgwHHFmXGVN-10" style="edgeStyle=orthogonalEdgeStyle;rounded=0;orthogonalLoop=1;jettySize=auto;html=1;exitX=0.5;exitY=1;exitDx=0;exitDy=0;entryX=0.5;entryY=0;entryDx=0;entryDy=0;startArrow=none;startFill=0;endArrow=none;endFill=0;" edge="1" parent="1" source="w50J-O3KDVgwHHFmXGVN-1" target="w50J-O3KDVgwHHFmXGVN-3">
          <mxGeometry relative="1" as="geometry" />
        </mxCell>
        <mxCell id="w50J-O3KDVgwHHFmXGVN-11" style="edgeStyle=orthogonalEdgeStyle;rounded=0;orthogonalLoop=1;jettySize=auto;html=1;exitX=0.5;exitY=1;exitDx=0;exitDy=0;entryX=0.5;entryY=0;entryDx=0;entryDy=0;endArrow=none;endFill=0;" edge="1" parent="1" source="w50J-O3KDVgwHHFmXGVN-1" target="w50J-O3KDVgwHHFmXGVN-4">
          <mxGeometry relative="1" as="geometry" />
        </mxCell>
        <mxCell id="w50J-O3KDVgwHHFmXGVN-1" value="漏洞检测系统" style="rounded=0;whiteSpace=wrap;html=1;" vertex="1" parent="1">
          <mxGeometry x="280" y="90" width="130" height="40" as="geometry" />
        </mxCell>
        <mxCell id="w50J-O3KDVgwHHFmXGVN-12" style="edgeStyle=orthogonalEdgeStyle;rounded=0;orthogonalLoop=1;jettySize=auto;html=1;exitX=0.5;exitY=1;exitDx=0;exitDy=0;entryX=0.5;entryY=0;entryDx=0;entryDy=0;endArrow=none;endFill=0;" edge="1" parent="1" source="w50J-O3KDVgwHHFmXGVN-3" target="w50J-O3KDVgwHHFmXGVN-5">
          <mxGeometry relative="1" as="geometry" />
        </mxCell>
        <mxCell id="w50J-O3KDVgwHHFmXGVN-13" style="edgeStyle=orthogonalEdgeStyle;rounded=0;orthogonalLoop=1;jettySize=auto;html=1;exitX=0.5;exitY=1;exitDx=0;exitDy=0;entryX=0.5;entryY=0;entryDx=0;entryDy=0;endArrow=none;endFill=0;" edge="1" parent="1" source="w50J-O3KDVgwHHFmXGVN-3" target="w50J-O3KDVgwHHFmXGVN-6">
          <mxGeometry relative="1" as="geometry" />
        </mxCell>
        <mxCell id="w50J-O3KDVgwHHFmXGVN-3" value="基础模块" style="rounded=0;whiteSpace=wrap;html=1;" vertex="1" parent="1">
          <mxGeometry x="200" y="170" width="90" height="40" as="geometry" />
        </mxCell>
        <mxCell id="w50J-O3KDVgwHHFmXGVN-14" style="edgeStyle=orthogonalEdgeStyle;rounded=0;orthogonalLoop=1;jettySize=auto;html=1;exitX=0.5;exitY=1;exitDx=0;exitDy=0;endArrow=none;endFill=0;" edge="1" parent="1" source="w50J-O3KDVgwHHFmXGVN-4" target="w50J-O3KDVgwHHFmXGVN-7">
          <mxGeometry relative="1" as="geometry" />
        </mxCell>
        <mxCell id="w50J-O3KDVgwHHFmXGVN-15" style="edgeStyle=orthogonalEdgeStyle;rounded=0;orthogonalLoop=1;jettySize=auto;html=1;exitX=0.5;exitY=1;exitDx=0;exitDy=0;endArrow=none;endFill=0;" edge="1" parent="1" source="w50J-O3KDVgwHHFmXGVN-4" target="w50J-O3KDVgwHHFmXGVN-8">
          <mxGeometry relative="1" as="geometry" />
        </mxCell>
        <mxCell id="w50J-O3KDVgwHHFmXGVN-16" style="edgeStyle=orthogonalEdgeStyle;rounded=0;orthogonalLoop=1;jettySize=auto;html=1;exitX=0.5;exitY=1;exitDx=0;exitDy=0;entryX=0.5;entryY=0;entryDx=0;entryDy=0;endArrow=none;endFill=0;" edge="1" parent="1" source="w50J-O3KDVgwHHFmXGVN-4" target="w50J-O3KDVgwHHFmXGVN-9">
          <mxGeometry relative="1" as="geometry" />
        </mxCell>
        <mxCell id="w50J-O3KDVgwHHFmXGVN-4" value="核心模块" style="rounded=0;whiteSpace=wrap;html=1;" vertex="1" parent="1">
          <mxGeometry x="400" y="170" width="100" height="40" as="geometry" />
        </mxCell>
        <mxCell id="w50J-O3KDVgwHHFmXGVN-5" value="用&lt;br&gt;户&lt;br&gt;管&lt;br&gt;理&lt;br&gt;模&lt;br&gt;块" style="rounded=0;whiteSpace=wrap;html=1;" vertex="1" parent="1">
          <mxGeometry x="175" y="246" width="40" height="160" as="geometry" />
        </mxCell>
        <mxCell id="w50J-O3KDVgwHHFmXGVN-6" value="漏&lt;br&gt;洞&lt;br&gt;监&lt;br&gt;测&lt;br&gt;模&lt;br&gt;块" style="rounded=0;whiteSpace=wrap;html=1;" vertex="1" parent="1">
          <mxGeometry x="280" y="246" width="40" height="160" as="geometry" />
        </mxCell>
        <mxCell id="w50J-O3KDVgwHHFmXGVN-7" value="检&lt;br&gt;测&lt;br&gt;资&lt;br&gt;源&lt;br&gt;管&lt;br&gt;理&lt;br&gt;模&lt;br&gt;块" style="rounded=0;whiteSpace=wrap;html=1;" vertex="1" parent="1">
          <mxGeometry x="360" y="246" width="40" height="160" as="geometry" />
        </mxCell>
        <mxCell id="w50J-O3KDVgwHHFmXGVN-8" value="检&lt;br&gt;测&lt;br&gt;包&lt;br&gt;模&lt;br&gt;块" style="rounded=0;whiteSpace=wrap;html=1;" vertex="1" parent="1">
          <mxGeometry x="430" y="246" width="40" height="160" as="geometry" />
        </mxCell>
        <mxCell id="w50J-O3KDVgwHHFmXGVN-9" value="检&lt;br&gt;测&lt;br&gt;路&lt;br&gt;径&lt;br&gt;图&lt;br&gt;模&lt;br&gt;块" style="rounded=0;whiteSpace=wrap;html=1;" vertex="1" parent="1">
          <mxGeometry x="500" y="246" width="40" height="160" as="geometry" />
        </mxCell>
      </root>
    </mxGraphModel>
  </diagram>
</mxfile>
